<?xml version="1.0" encoding="UTF-8"?>
<svg xmlns="http://www.w3.org/2000/svg" viewBox="0 0 1157.75 1097.62">
  <defs>
    <style>
      .cls-1 {
        fill: none;
        stroke: #020202;
        stroke-miterlimit: 10;
        stroke-width: 4px;
      }

      .cls-2 {
        fill: #ffe8a2;
      }
    </style>
  </defs>
  <g id="_レイヤー_2" data-name="レイヤー 2">
    <circle class="cls-1" cx="561.82" cy="545.62" r="379.66"/>
    <path class="cls-1" d="M784.03,237.79c97.88-16.67,173.55-2.65,203.45,45.94,29.9,48.59,8.3,122.46-50.71,202.31-57.79,78.2-151.48,162.17-267.8,233.74-116.32,71.56-233.5,117.34-329.36,133.67-97.88,16.67-173.55,2.65-203.45-45.94-29.9-48.59-8.3-122.46,50.71-202.31"/>
    <path class="cls-2" d="M174.78,939.69l-19.59-15.93c-.66-.54-1.51-.77-2.36-.64l-24.96,3.81c-2.29.35-4.1-1.9-3.27-4.06l9.09-23.55c.31-.79.26-1.68-.12-2.44l-11.34-22.56c-1.04-2.07.54-4.49,2.86-4.36l25.21,1.37c.85.05,1.68-.27,2.28-.87l17.95-17.75c1.65-1.63,4.44-.87,5.03,1.37l6.49,24.4c.22.82.77,1.51,1.53,1.9l22.43,11.59c2.06,1.06,2.2,3.95.25,5.21l-21.2,13.71c-.71.46-1.2,1.2-1.34,2.04l-4.09,24.91c-.37,2.28-3.08,3.31-4.87,1.85Z"/>
    <path class="cls-2" d="M980.43,801.74l-9.3-16.03c-.43-.74-1.14-1.26-1.97-1.43l-18.12-3.89c-2.26-.49-3.16-3.24-1.61-4.96l12.37-13.8c.57-.63.84-1.48.75-2.32l-1.9-18.43c-.24-2.3,2.1-4,4.22-3.06l16.94,7.51c.78.34,1.66.34,2.44,0l16.94-7.51c2.12-.94,4.46.76,4.22,3.06l-1.9,18.43c-.09.85.19,1.69.75,2.32l12.37,13.8c1.55,1.72.65,4.47-1.61,4.96l-18.12,3.89c-.83.18-1.55.7-1.97,1.43l-9.3,16.03c-1.16,2-4.05,2-5.21,0Z"/>
    <path class="cls-2" d="M778.26,201.34l-4.14-18.06c-.19-.83-.72-1.54-1.46-1.95l-16.16-9.07c-2.02-1.13-2.06-4.02-.07-5.21l15.9-9.52c.73-.44,1.24-1.16,1.41-1.99l3.63-18.17c.45-2.27,3.19-3.2,4.93-1.68l13.97,12.18c.64.56,1.49.82,2.33.72l18.41-2.16c2.3-.27,4.03,2.04,3.12,4.17l-7.27,17.05c-.33.78-.32,1.67.03,2.44l7.75,16.84c.97,2.1-.7,4.47-3,4.26l-18.46-1.64c-.85-.08-1.69.21-2.31.79l-13.62,12.57c-1.7,1.57-4.46.72-4.98-1.54Z"/>
    <path class="cls-2" d="M179.49,318.3l1.63-4.3c.3-.79.25-1.68-.13-2.44l-2.09-4.1c-1.05-2.06.52-4.49,2.83-4.38l4.59.22c.85.04,1.68-.28,2.28-.88l3.25-3.25c1.64-1.64,4.43-.89,5.04,1.34l1.21,4.44c.22.82.78,1.51,1.54,1.89l4.1,2.09c2.06,1.05,2.22,3.94.28,5.21l-3.85,2.52c-.71.47-1.19,1.21-1.32,2.05l-.72,4.54c-.36,2.29-3.06,3.33-4.86,1.88l-3.59-2.88c-.66-.53-1.52-.76-2.36-.63l-4.54.72c-2.29.36-4.11-1.88-3.29-4.04Z"/>
  </g>
  <g id="_レイヤー_1" data-name="レイヤー 1">
    <circle class="cls-1" cx="1000.87" cy="312.06" r="74.56"/>
  </g>
</svg>