<?xml version="1.0" encoding="UTF-8"?>
<svg id="Layer_1" xmlns="http://www.w3.org/2000/svg" viewBox="0 0 396.53 277.78">
  <defs>
    <style>
      .cls-1 {
        fill: #212121;
      }
    </style>
  </defs>
  <path class="cls-1" d="M388.13,43.45c-4.64-17.09-17.67-30.41-35.05-35.05C322.38,0,198.12,0,198.12,0c0,0-123.97,0-154.67,8.4C26.36,13.03,13.03,26.36,8.11,43.45,0,74.15,0,138.74,0,138.74c0,0,0,64.59,8.11,95.59,4.92,16.8,18.25,30.41,35.34,35.05,30.7,8.4,154.67,8.4,154.67,8.4,0,0,124.26,0,154.96-8.4,17.38-4.63,30.41-18.25,35.05-35.05,8.4-30.99,8.4-95.59,8.4-95.59,0,0,0-64.59-8.4-95.29ZM158.73,198.41v-119.05l102.83,59.38-102.83,59.67Z"/>
</svg>